<?xml version="1.0" standalone="no"?>
<!DOCTYPE svg PUBLIC "-//W3C//DTD SVG 20010904//EN"
 "http://www.w3.org/TR/2001/REC-SVG-20010904/DTD/svg10.dtd">
<svg version="1.0" xmlns="http://www.w3.org/2000/svg"
 width="266.000000pt" height="266.000000pt" viewBox="0 0 266.000000 266.000000"
 preserveAspectRatio="xMidYMid meet">
<metadata>
Created by potrace 1.11, written by Peter Selinger 2001-2013
</metadata>
<g transform="translate(0.000000,266.000000) scale(0.100000,-0.100000)"
fill="#000000" stroke="none">
<path d="M2153 2317 c-4 -6 -1 -7 7 -2 9 6 11 4 6 -4 -5 -7 -14 -10 -22 -7 -9
4 -14 -2 -14 -15 0 -13 -5 -19 -12 -16 -9 3 -14 -11 -15 -49 -1 -32 2 -54 8
-54 6 0 7 6 3 13 -5 9 -3 9 7 -1 12 -11 12 -14 -1 -22 -10 -7 -11 -10 -2 -11
6 -1 17 -3 22 -4 6 -1 16 -3 23 -4 9 -1 8 -4 -2 -10 -9 -6 3 -10 38 -12 43 -3
51 -1 51 13 0 11 5 15 15 12 9 -4 15 0 15 10 0 9 8 16 18 16 14 0 15 2 2 10
-10 6 -11 10 -2 10 19 0 16 76 -4 84 -8 3 -12 11 -8 17 4 7 1 10 -7 7 -8 -3
-19 2 -25 10 -13 17 -92 24 -101 9z"/>
<path d="M2039 2303 c-11 -3 -15 -12 -11 -28 5 -29 36 -34 46 -8 8 20 -13 41
-35 36z"/>
<path d="M1222 2288 c4 -9 -2 -14 -15 -16 -17 -1 -19 1 -7 8 12 8 10 10 -8 10
-13 0 -20 -4 -17 -10 5 -9 -68 -16 -99 -11 -5 1 -4 -4 2 -12 10 -12 8 -13 -13
-9 -16 3 -33 -2 -44 -12 -18 -16 -20 -16 -31 1 -10 16 -11 16 -6 1 4 -13 0
-18 -15 -18 -13 0 -18 -4 -13 -12 5 -8 0 -7 -11 2 -11 9 -16 10 -11 3 6 -12
-17 -19 -46 -14 -4 0 -5 -6 -2 -14 5 -11 -2 -15 -27 -15 -26 0 -30 -3 -19 -10
10 -7 11 -10 3 -11 -7 -1 -18 -2 -23 -3 -6 0 -14 -7 -19 -14 -4 -7 -17 -14
-28 -15 -14 -1 -19 -6 -15 -16 3 -9 1 -12 -6 -7 -7 4 -12 1 -12 -8 0 -9 -3
-15 -7 -15 -20 3 -34 -2 -28 -11 6 -9 -8 -14 -27 -11 -5 0 -8 -6 -8 -14 0 -8
-7 -15 -15 -15 -8 0 -15 -7 -15 -15 0 -8 -8 -15 -17 -15 -15 0 -16 -2 -3 -10
13 -8 12 -10 -4 -10 -12 0 -16 -5 -12 -16 3 -8 2 -13 -2 -10 -4 2 -17 -9 -27
-25 -11 -16 -26 -29 -33 -29 -6 0 -11 -3 -11 -7 4 -24 -3 -43 -15 -43 -8 0
-18 -5 -22 -12 -4 -6 -3 -8 3 -5 5 3 10 0 10 -7 0 -8 -5 -12 -12 -10 -9 4 -13
-8 -17 -53 -1 -6 -7 -9 -15 -6 -9 4 -13 -4 -13 -25 0 -16 -7 -35 -15 -42 -10
-8 -13 -21 -9 -33 5 -15 3 -19 -8 -14 -15 5 -18 -2 -18 -61 0 -19 -7 -43 -15
-55 -8 -13 -14 -50 -15 -92 0 -38 -2 -92 -3 -119 -2 -31 2 -53 11 -62 11 -12
11 -14 0 -14 -8 0 -14 -9 -14 -19 0 -15 3 -17 13 -9 16 13 17 -4 1 -20 -9 -9
-9 -12 0 -12 7 0 12 -13 12 -31 0 -20 -4 -28 -12 -23 -8 5 -9 2 -5 -9 3 -9 3
-16 -1 -16 -23 4 -42 -3 -39 -13 1 -7 -4 -12 -11 -11 -8 2 -12 -13 -12 -53 0
-39 3 -53 12 -48 7 5 9 1 6 -13 -3 -12 0 -20 8 -21 8 -1 21 -3 29 -4 8 -1 12
-5 9 -10 -3 -4 -2 -8 3 -9 4 0 18 -2 30 -3 13 -2 23 1 23 5 0 4 9 5 20 2 11
-3 17 -9 14 -14 -3 -5 2 -12 10 -15 9 -3 16 -12 16 -18 0 -26 25 -66 39 -61 9
4 12 -1 8 -15 -3 -13 0 -20 10 -20 8 0 11 -4 8 -10 -3 -5 -1 -10 5 -10 7 0 10
-7 7 -14 -4 -10 -1 -13 9 -9 10 3 14 -2 14 -18 0 -19 2 -21 10 -9 9 13 10 13
10 0 0 -9 13 -27 30 -42 16 -14 26 -28 23 -32 -4 -3 1 -6 10 -6 10 0 17 -7 17
-15 0 -8 5 -15 11 -15 5 0 7 6 4 12 -4 7 0 5 8 -4 8 -10 17 -15 20 -11 4 3 7
-1 7 -10 0 -9 7 -17 15 -17 8 0 15 -7 15 -15 0 -9 10 -15 26 -15 14 0 23 -4
19 -10 -3 -5 3 -10 15 -10 12 0 19 -4 15 -9 -3 -5 -1 -12 5 -16 5 -3 10 -1 10
5 0 6 7 4 16 -5 9 -9 23 -14 32 -10 11 4 12 2 4 -7 -8 -10 -3 -13 19 -15 16
-1 37 -9 45 -18 9 -8 20 -13 25 -10 5 4 9 1 9 -6 0 -10 3 -10 12 -1 9 9 16 8
29 -4 11 -10 38 -17 72 -17 39 -2 53 -6 50 -14 -3 -7 2 -13 12 -13 10 0 13 4
9 13 -6 9 -5 9 7 0 19 -16 251 -23 245 -7 -5 14 27 14 36 0 6 -8 8 -8 8 0 0 6
17 11 37 12 21 1 39 6 41 12 3 7 9 7 18 -1 12 -9 13 -9 9 3 -4 11 2 14 25 12
20 -1 30 3 30 12 0 8 5 14 11 14 5 0 7 -6 3 -12 -6 -10 -4 -10 7 -1 7 7 23 13
36 13 13 0 22 5 21 12 -2 8 5 12 18 10 12 -2 24 4 27 13 4 8 13 15 21 15 8 0
16 5 18 10 2 6 13 12 26 13 15 1 21 6 17 15 -4 10 0 13 15 9 12 -3 20 0 20 8
0 15 43 45 65 45 8 0 14 3 14 7 -3 18 1 36 7 30 9 -9 44 25 37 36 -4 6 1 8 11
4 14 -5 17 -3 12 8 -3 8 -1 15 4 15 18 0 50 38 37 44 -7 2 -4 5 6 5 9 1 17 8
17 16 0 8 4 15 9 15 5 0 13 10 17 22 3 12 13 28 20 36 8 7 11 19 7 25 -4 7 0
8 11 4 10 -4 15 -3 11 3 -3 6 -1 10 6 10 9 0 9 3 0 14 -10 11 -7 17 10 29 14
10 19 22 15 32 -4 12 -2 16 7 12 8 -3 14 5 15 22 4 45 8 60 17 68 4 4 5 2 1
-4 -4 -7 -2 -13 3 -13 15 0 14 13 -1 29 -10 11 -10 13 0 7 8 -5 12 2 12 26 0
19 6 40 13 47 6 8 7 11 2 8 -6 -3 -11 4 -11 18 0 13 5 21 11 18 8 -3 12 35 14
132 2 106 -1 135 -11 135 -9 0 -9 3 2 10 8 5 10 10 4 10 -7 0 -13 15 -14 33
-3 80 -5 95 -12 90 -8 -4 -11 7 -11 40 0 9 -5 17 -11 17 -6 0 -13 12 -14 27
-1 15 -9 31 -17 36 -9 4 -13 12 -10 18 10 14 -26 79 -44 80 -12 0 -12 2 4 9
18 8 18 9 2 9 -10 1 -15 6 -12 11 3 6 2 10 -4 10 -5 0 -20 17 -32 38 -13 20
-27 39 -31 40 -4 2 -8 12 -8 23 0 10 -3 18 -7 18 -20 -3 -34 2 -29 10 3 5 -1
12 -10 15 -8 3 -12 11 -8 17 4 8 3 9 -5 5 -6 -4 -14 0 -17 8 -3 9 -10 13 -15
10 -5 -3 -9 5 -9 18 0 18 -2 20 -10 8 -6 -9 -10 -10 -10 -3 0 6 -9 15 -20 18
-11 4 -18 11 -15 16 4 5 -1 9 -9 9 -9 0 -16 7 -16 15 0 8 -3 14 -7 14 -23 -4
-43 2 -38 11 3 6 -3 10 -14 10 -11 0 -26 7 -35 15 -8 8 -20 15 -26 15 -6 0
-13 7 -17 16 -5 13 -7 13 -14 2 -7 -10 -9 -10 -9 0 0 6 -9 12 -20 12 -11 0
-20 5 -20 11 0 5 -4 8 -9 4 -5 -3 -12 -1 -16 4 -3 6 -12 8 -20 4 -9 -3 -15 1
-15 11 0 9 -5 16 -11 16 -5 0 -7 -4 -4 -10 3 -5 -10 -3 -30 5 -19 9 -35 12
-35 9 0 -4 -8 0 -17 7 -9 8 -14 9 -10 3 3 -6 0 -11 -7 -11 -8 0 -12 5 -10 12
3 6 -6 11 -20 11 -15 0 -22 -4 -18 -10 3 -6 -1 -6 -9 1 -16 13 -199 22 -199
10 0 -4 -10 -3 -22 4 -17 9 -20 9 -16 -3z m-829 -793 c-3 -9 -8 -14 -10 -11
-3 3 -2 9 2 15 9 16 15 13 8 -4z"/>
<path d="M2276 2029 c2 -4 -3 -12 -11 -16 -16 -9 -16 -61 0 -55 5 2 12 -3 17
-11 10 -19 30 -16 54 7 23 24 29 56 9 56 -8 0 -15 6 -15 14 0 10 -10 14 -30
14 -16 -1 -27 -5 -24 -9z"/>
<path d="M2096 675 c5 -11 2 -13 -10 -9 -24 9 -21 -44 4 -66 22 -19 65 -16 53
4 -4 7 -2 7 8 -1 13 -10 15 -6 18 28 1 26 -2 38 -9 34 -5 -3 -10 1 -10 9 0 11
-9 16 -30 16 -22 0 -28 -4 -24 -15z"/>
<path d="M623 415 c-15 -17 -18 -69 -3 -60 6 3 10 -1 10 -9 0 -11 9 -16 30
-16 21 0 30 5 30 16 0 8 4 13 9 9 5 -3 9 8 9 25 -1 16 -5 30 -10 30 -5 0 -6 5
-3 10 10 16 -58 11 -72 -5z"/>
</g>
</svg>
